{"accessors":[{"bufferView":2,"componentType":5126,"count":418,"max":[2.31712007522583,15.414569854736328,1.1933300495147705],"min":[-2.4407999515533447,-0.8647300004959106,-0.08878999948501587],"type":"VEC3"},{"bufferView":2,"byteOffset":5016,"componentType":5126,"count":418,"max":[1,1,1],"min":[-1,-1,-1],"type":"VEC3"},{"bufferView":1,"componentType":5126,"count":418,"max":[0.9915000200271606,0.9548599720001221],"min":[0.3694100081920624,0.008449999615550041],"type":"VEC2"},{"bufferView":0,"componentType":5125,"count":660,"type":"SCALAR"},{"bufferView":2,"byteOffset":10032,"componentType":5126,"count":118,"max":[1.198199987411499,22.19866943359375,0.9394599795341492],"min":[-1.3588900566101074,4.481860160827637,0.18704000115394592],"type":"VEC3"},{"bufferView":2,"byteOffset":11448,"componentType":5126,"count":118,"max":[0.7153061628341675,0.3924098610877991,0.9905999898910522],"min":[-0.7988024950027466,-0.0013600041856989264,-0.9929763078689575],"type":"VEC3"},{"bufferView":1,"byteOffset":3344,"componentType":5126,"count":118,"max":[0.7951599955558777,0.9763399958610535],"min":[0.008500000461935997,0.006370000075548887],"type":"VEC2"},{"bufferView":0,"byteOffset":2640,"componentType":5125,"count":162,"type":"SCALAR"}],"asset":{"extras":{"author":"papysh (https://sketchfab.com/papysh)","license":"CC-BY-4.0 (http://creativecommons.org/licenses/by/4.0/)","source":"https://sketchfab.com/3d-models/adventure-time-finns-sword-62f0a51428c84872b23e394a527ddc79","title":"Adventure Time - Finn's sword"},"generator":"Sketchfab-13.70.0","version":"2.0"},"bufferViews":[{"buffer":0,"byteLength":3288,"name":"floatBufferViews","target":34963},{"buffer":0,"byteLength":4288,"byteOffset":3288,"byteStride":8,"name":"floatBufferViews","target":34962},{"buffer":0,"byteLength":12864,"byteOffset":7576,"byteStride":12,"name":"floatBufferViews","target":34962}],"buffers":[{"byteLength":20440,"uri":"data:application/octet-stream;base64,"}],"extensionsRequired":["KHR_materials_pbrSpecularGlossiness"],"extensionsUsed":["KHR_materials_pbrSpecularGlossiness"],"images":[{"uri":"data:application/octet-stream;base64,"},{"uri":"data:application/octet-stream;base64,"}],"materials":[{"doubleSided":true,"extensions":{"KHR_materials_pbrSpecularGlossiness":{"diffuseFactor":[1,1,1,1],"diffuseTexture":{"index":0},"glossinessFactor":0,"specularFactor":[0,0,0]}},"name":"Material.001"},{"doubleSided":true,"extensions":{"KHR_materials_pbrSpecularGlossiness":{"diffuseFactor":[1,1,1,1],"diffuseTexture":{"index":1},"glossinessFactor":0.8491423973863539,"specularFactor":[0.062171618971638774,0.062171618971638774,0.062171618971638774]}},"name":"Material.002"}],"meshes":[{"name":"Circle_0","primitives":[{"attributes":{"NORMAL":1,"POSITION":0,"TEXCOORD_0":2},"indices":3,"material":0,"mode":4}]},{"name":"Circle_1","primitives":[{"attributes":{"NORMAL":5,"POSITION":4,"TEXCOORD_0":6},"indices":7,"material":1,"mode":4}]}],"nodes":[{"children":[1],"matrix":[0.13607669635200637,0.015100419353522911,-0.0072363203333694025,0,-0.007861570813709307,0.005299845970299119,-0.13677486132769445,0,-0.014784542686641089,0.13616586900241145,0.006126036766577444,0,0,0,0,1],"name":"Sketchfab_model"},{"children":[2,5],"name":"Root"},{"children":[3,4],"matrix":[0.22125000000000003,0.0017800000000000005,0.3279500000000001,0,-0.3279500000000001,-0.00045000000000000015,0.22125000000000003,0,0.0013700000000000003,-0.39560000000000006,0.0012200000000000004,0,3.93471,0.5913,3.7775300000000005,1],"name":"Circle"},{"mesh":0,"name":"Circle_0"},{"mesh":1,"name":"Circle_1"},{"children":[6],"matrix":[0.46130000000000004,0.8823500000000001,0.09309000000000003,0,-0.29161000000000004,0.051690000000000014,0.9551400000000001,0,0.8379500000000001,-0.46775,0.28115,0,14.468969999999999,-7.70647,12.567169999999999,1],"name":"Sun"},{"name":"Sun"}],"samplers":[{"magFilter":9729,"minFilter":9987,"wrapS":10497,"wrapT":10497}],"scene":0,"scenes":[{"name":"Sketchfab_Scene","nodes":[0]}],"textures":[{"sampler":0,"source":0},{"sampler":0,"source":1}]}